<?xml version="1.0" encoding="UTF-8" standalone="no"?>
<svg width="16" height="16" viewBox="0 0 4.2333333 4.233333" version="1.1" id="svg1" xml:space="preserve"
  xmlns:xlink="http://www.w3.org/1999/xlink" xmlns="http://www.w3.org/2000/svg" xmlns:svg="http://www.w3.org/2000/svg">
  <defs id="defs1">
    <linearGradient id="linearGradient26">
      <stop style="stop-color:#dc682e;stop-opacity:1;" offset="0.06" id="stop25" />
      <stop style="stop-color:#2edc2e;stop-opacity:1;" offset="0.94" id="stop26" />
    </linearGradient>
    <linearGradient id="linearGradient24">
      <stop style="stop-color:#dc2e2e;stop-opacity:1;" offset="0.06" id="stop23" />
      <stop style="stop-color:#2e2edc;stop-opacity:1;" offset="0.94" id="stop24" />
    </linearGradient>
    <linearGradient id="linearGradient19">
      <stop style="stop-color:#2edc2e;stop-opacity:1;" offset="0.06" id="stop18" />
      <stop style="stop-color:#2e2edc;stop-opacity:1;" offset="0.94" id="stop19" />
    </linearGradient>
    <linearGradient id="linearGradient16">
      <stop style="stop-color:#dc682e;stop-opacity:1;" offset="0.06" id="stop16" />
      <stop style="stop-color:#dc2e2e;stop-opacity:1;" offset="0.94" id="stop17" />
    </linearGradient>
    <linearGradient xlink:href="#linearGradient16" id="linearGradient17" x1="1.5213542" y1="0.79374999" x2="2.7119792"
      y2="0.79374999" gradientUnits="userSpaceOnUse" />
    <linearGradient xlink:href="#linearGradient19" id="linearGradient18" gradientUnits="userSpaceOnUse" x1="1.5213542"
      y1="0.79374999" x2="2.7119792" y2="0.79374999" gradientTransform="translate(-3.8088379e-8,2.6458334)" />
    <linearGradient xlink:href="#linearGradient24" id="linearGradient20" gradientUnits="userSpaceOnUse"
      gradientTransform="translate(-4.4227906e-8,-4.2333332)" x1="1.5213542" y1="0.79374999" x2="2.7119792"
      y2="0.79374999" />
    <linearGradient xlink:href="#linearGradient26" id="linearGradient25" gradientUnits="userSpaceOnUse"
      gradientTransform="translate(3.26651e-8,-1.5875)" x1="1.5213542" y1="0.79374999" x2="2.7119792" y2="0.79374999" />
  </defs>
  <rect
    style="display:inline;fill:url(#linearGradient18);fill-opacity:1;stroke:none;stroke-width:0.0601973;stroke-dasharray:none;stroke-opacity:1"
    id="rect16-4" width="1.190625" height="0.39687499" x="1.5213542" y="3.2411458" />
  <rect
    style="display:inline;fill:url(#linearGradient20);fill-opacity:1;stroke:none;stroke-width:0.0601973;stroke-dasharray:none;stroke-opacity:1"
    id="rect16-4-0" width="1.190625" height="0.39687499" x="1.5213542" y="-3.6380208" transform="rotate(90)" />
  <rect
    style="display:inline;fill:url(#linearGradient25);fill-opacity:1;stroke:none;stroke-width:0.0601973;stroke-dasharray:none;stroke-opacity:1"
    id="rect16-4-0-0" width="1.190625" height="0.39687499" x="1.5213542" y="-0.9921875" transform="rotate(90)" />
  <rect
    style="display:inline;fill:url(#linearGradient17);stroke:none;stroke-width:0.0601973;stroke-dasharray:none;stroke-opacity:1"
    id="rect16" width="1.190625" height="0.39687499" x="1.5213542" y="0.59531248" />
  <g id="g28" style="display:inline">
    <path fill="#dc682e"
      d="m 3.4395832,2.6458333 c -0.438357,0 -0.7937499,0.3553931 -0.7937499,0.79375 0,0.438426 0.3553929,0.7937499 0.7937499,0.7937499 0.4384261,0 0.79375,-0.3553239 0.79375,-0.7937499 0,-0.4383569 -0.355324,-0.79375 -0.79375,-0.79375 z m 0,1.452217 c -0.363676,0 -0.6584669,-0.2948601 -0.6584669,-0.658467 0,-0.363676 0.2947909,-0.6584669 0.6584669,-0.6584669 0.363676,0 0.658467,0.2947909 0.658467,0.6584669 0,0.3636069 -0.294791,0.658467 -0.658467,0.658467 z"
      id="path15-4-4-2" style="display:inline;fill:#2e2edc;fill-opacity:1;stroke-width:0.0690217" />
    <circle
      style="display:inline;fill:#2e2edc;fill-opacity:1;stroke:none;stroke-width:0.0226182;stroke-dasharray:none;stroke-opacity:1"
      id="path16-4" cx="3.4395833" cy="3.4395833" r="0.39687499" />
  </g>
  <g id="g27" style="display:inline">
    <path fill="#dc682e"
      d="M 0.79375,2.6458333 C 0.355393,2.6458333 0,3.0012264 0,3.4395833 c 0,0.438426 0.355393,0.7937499 0.79375,0.7937499 0.438426,0 0.79375,-0.3553239 0.79375,-0.7937499 0,-0.4383569 -0.355324,-0.79375 -0.79375,-0.79375 z m 0,1.452217 c -0.363676,0 -0.6584669,-0.2948601 -0.6584669,-0.658467 0,-0.363676 0.2947909,-0.6584669 0.6584669,-0.6584669 0.363676,0 0.658467,0.2947909 0.658467,0.6584669 0,0.3636069 -0.294791,0.658467 -0.658467,0.658467 z"
      id="path15-4-4" style="display:inline;fill:#2edc2e;fill-opacity:1;stroke-width:0.0690217" />
    <circle
      style="display:inline;fill:#2edc2e;fill-opacity:1;stroke:none;stroke-width:0.0226182;stroke-dasharray:none;stroke-opacity:1"
      id="path16-7" cx="0.79374999" cy="3.4395833" r="0.39687499" />
  </g>
  <g id="g26" style="display:inline">
    <path fill="#dc682e"
      d="m 3.4395833,0 c -0.438357,0 -0.79375,0.355393 -0.79375,0.79375 0,0.438426 0.355393,0.7937499 0.79375,0.7937499 0.4384259,0 0.7937499,-0.3553239 0.7937499,-0.7937499 C 4.2333332,0.355393 3.8780092,0 3.4395833,0 Z m 0,1.452217 c -0.3636761,0 -0.658467,-0.2948601 -0.658467,-0.658467 0,-0.363676 0.2947909,-0.658467 0.658467,-0.658467 0.3636759,0 0.658467,0.294791 0.658467,0.658467 0,0.3636069 -0.2947911,0.658467 -0.658467,0.658467 z"
      id="path15-4" style="display:inline;fill:#dc2e2e;fill-opacity:1;stroke-width:0.0690217" />
    <circle
      style="display:inline;fill:#dc2e2e;fill-opacity:1;stroke:none;stroke-width:0.0226182;stroke-dasharray:none;stroke-opacity:1"
      id="path16" cx="3.4395833" cy="0.79374993" r="0.39687499" />
  </g>
  <g id="g16" transform="scale(0.06902174)" style="display:inline">
    <path id="path14" fill="#dc682e"
      d="m 12.7,21.9 c 0.2,0 0.399,-0.101 0.7,-0.101 0.1,0 0.199,0 0.3,-0.1 0.2,0 0.5,-0.101 0.7,-0.2 0.1,0 0.199,0 0.3,-0.1 C 15,21.3 15.3,21.2 15.6,21.1 c 0.101,0 0.101,-0.1 0.2,-0.1 0.2,-0.1 0.5,-0.2 0.7,-0.3 0.1,0 0.2,-0.101 0.3,-0.2 0.2,-0.1 0.4,-0.2 0.5,-0.3 0.1,-0.1 0.2,-0.1 0.3,-0.2 0.2,-0.1 0.4,-0.3 0.601,-0.4 0.1,0 0.1,-0.1 0.2,-0.1 0.199,-0.2 0.5,-0.4 0.699,-0.6 0.1,-0.1 0.1,-0.1 0.2,-0.2 0.2,-0.2 0.3,-0.3 0.4,-0.5 0.1,-0.101 0.1,-0.2 0.2,-0.3 0.1,-0.2 0.2,-0.3 0.4,-0.5 0.1,-0.1 0.1,-0.2 0.2,-0.3 0.1,-0.199 0.3,-0.5 0.4,-0.699 0,0 0,-0.101 0.1,-0.101 0.1,-0.3 0.3,-0.5 0.4,-0.8 0,-0.1 0.1,-0.2 0.1,-0.3 0,-0.101 0.1,-0.2 0.1,-0.4 l -5.399,-6 -5.801,6.6 2.8,-5.6 -1.4,-2.5 -8.7,10 c 0,0.101 0.1,0.101 0.1,0.2 0.2,0.2 0.3,0.5 0.5,0.7 0.1,0.1 0.2,0.2 0.3,0.3 0.2,0.2 0.4,0.4 0.6,0.6 0.1,0.1 0.2,0.2 0.3,0.3 0.2,0.2 0.4,0.4 0.7,0.5 0.1,0.1 0.1,0.1 0.2,0.2 0.3,0.2 0.6,0.4 1,0.601 0.1,0 0.1,0.1 0.2,0.1 0.3,0.101 0.6,0.3 0.9,0.4 0.1,0 0.2,0.1 0.4,0.1 0.2,0.101 0.5,0.2 0.8,0.2 0.1,0 0.3,0.1 0.4,0.1 0.3,0.099 0.5,0.099 0.8,0.199 0.1,0 0.2,0 0.4,0.101 0.4,0 0.8,0.1 1.2,0.1 0.3,0 0.7,0 1,0 C 12.5,22 12.6,22 12.7,21.9 Z"
      style="display:inline" />
    <path fill="#dc682e"
      d="M 11.5,0 C 5.149,0 0,5.149 0,11.5 0,17.852 5.149,23 11.5,23 17.852,23 23,17.852 23,11.5 23,5.149 17.852,0 11.5,0 Z m 0,21.04 c -5.269,0 -9.54,-4.272 -9.54,-9.54 0,-5.269 4.271,-9.54 9.54,-9.54 5.269,0 9.54,4.271 9.54,9.54 0,5.268 -4.271,9.54 -9.54,9.54 z"
      id="path15" style="display:inline" />
  </g>
</svg>