<svg xmlns="http://www.w3.org/2000/svg" version="1.0" width="16" height="16">
  <defs>
    <linearGradient id="t" x1="0%" x2="100%" y1="0%" y2="0%">
      <stop offset="6%" stop-color="#DC682E"/>
      <stop offset="94%" stop-color="#DC2E2E"/>
    </linearGradient>
    <linearGradient id="l" x1="0%" x2="0%" y1="0%" y2="100%">
      <stop offset="6%" stop-color="#DC682E"/>
      <stop offset="94%" stop-color="#2EDC2E"/>
    </linearGradient>
    <linearGradient id="r" x1="0%" x2="0%" y1="0%" y2="100%">
      <stop offset="6%" stop-color="#DC2E2E"/>
      <stop offset="94%" stop-color="#2E2EDC"/>
    </linearGradient>
    <linearGradient id="b" x1="0%" x2="100%" y1="0%" y2="0%">
      <stop offset="6%" stop-color="#2EDC2E"/>
      <stop offset="94%" stop-color="#2E2EDC"/>
    </linearGradient>
  </defs>
  <path fill="#dc682e" d="m.803 4.506 2.28-2.6.36.65-.73 1.46 1.52-1.72 1.4 1.56s-1.73 3.92-4.82.65z"/>
  <rect fill="url(#t)" width="4.5" height="2" x="5.75" y="2"/>
  <rect fill="url(#l)" width="2" height="4.5" x="2" y="5.75"/>
  <rect fill="url(#r)" width="2" height="4.5" x="12" y="5.75"/>
  <rect fill="url(#b)" width="4.5" height="2" x="5.75" y="12"/>
  <circle fill="none" stroke="#DC682E" stroke-width="0.5" r="2.75" cx="3" cy="3"/>
  <circle fill="none" stroke="#DC2E2E" stroke-width="0.5" r="2.75" cx="13" cy="3"/>
  <circle fill="#DC2E2E" r="1.5" cx="13" cy="3"/>
  <circle fill="none" stroke="#2EDC2E" stroke-width="0.5" r="2.75" cx="3" cy="13"/>
  <circle fill="#2EDC2E" r="1.5" cx="3" cy="13"/>
  <circle fill="none" stroke="#2E2EDC" stroke-width="0.5" r="2.75" cx="13" cy="13"/>
  <circle fill="#2E2EDC" r="1.5" cx="13" cy="13"/>
</svg>
